<?xml version="1.0" standalone="no"?>
<!DOCTYPE svg PUBLIC "-//W3C//DTD SVG 20010904//EN"
 "http://www.w3.org/TR/2001/REC-SVG-20010904/DTD/svg10.dtd">
<svg version="1.0" xmlns="http://www.w3.org/2000/svg"
 width="1497.000000pt" height="1498.000000pt" viewBox="0 0 1497.000000 1498.000000"
 preserveAspectRatio="xMidYMid meet">

<g transform="translate(0.000000,1498.000000) scale(0.100000,-0.100000)"
fill="#000000" stroke="none">
<path d="M5955 11186 c-16 -7 -43 -26 -59 -42 -109 -110 -1787 -1994 -1808
-2032 -54 -91 -30 -214 50 -267 32 -21 108 -36 593 -117 l556 -92 47 18 c36
14 56 30 80 64 160 234 369 457 559 599 563 419 1296 550 1967 351 143 -42
175 -45 226 -16 27 15 150 142 345 358 393 433 387 426 401 472 16 53 -2 167
-33 213 -49 71 8 60 -1457 291 -746 117 -1375 214 -1397 213 -22 0 -53 -6 -70
-13z"/>
<path d="M9618 9483 c-33 -36 -363 -493 -370 -513 -8 -24 10 -50 35 -50 34 1
540 369 551 401 14 41 1 69 -58 132 -48 50 -59 57 -93 57 -30 0 -45 -7 -65
-27z"/>
<path d="M7275 9343 c-483 -58 -917 -243 -1282 -547 -122 -103 -146 -160 -104
-253 49 -107 168 -117 275 -23 148 130 300 230 479 315 265 126 498 183 819
201 138 7 169 22 206 96 26 52 24 94 -9 147 -37 61 -68 71 -219 69 -74 0 -148
-3 -165 -5z"/>
<path d="M8074 9242 c-66 -42 -92 -130 -60 -205 20 -49 45 -65 157 -103 759
-259 1299 -925 1398 -1724 6 -46 11 -148 11 -226 l0 -141 -157 -14 c-214 -19
-417 -16 -667 11 -374 39 -497 22 -606 -89 -71 -72 -106 -143 -181 -378 -72
-220 -116 -316 -176 -383 -131 -146 -374 -142 -546 10 -26 23 -85 91 -132 150
-95 122 -128 150 -175 150 -17 0 -79 -22 -138 -50 -143 -66 -216 -84 -314 -77
-175 12 -301 108 -510 387 -95 126 -226 149 -396 70 -36 -17 -68 -30 -72 -30
-31 0 -47 496 -22 660 43 275 125 513 262 760 16 30 30 70 30 88 0 138 -162
211 -265 121 -49 -44 -180 -309 -237 -484 -50 -150 -89 -315 -110 -460 -20
-137 -17 -503 5 -645 124 -792 604 -1450 1312 -1795 441 -215 899 -286 1396
-215 240 35 468 107 697 220 518 257 931 699 1145 1225 115 281 165 519 174
825 9 304 -25 542 -117 823 -117 353 -320 680 -589 947 -187 186 -415 347
-646 456 -258 121 -405 158 -471 116z"/>
<path d="M4224 8528 c-12 -5 -27 -20 -33 -32 -6 -11 -22 -149 -35 -306 -20
-241 -22 -290 -11 -316 17 -41 65 -58 152 -52 57 4 69 8 89 32 30 34 30 40 -1
346 -13 135 -25 253 -25 263 0 10 -13 32 -29 48 -31 31 -68 37 -107 17z"/>
<path d="M10245 8234 c-143 -80 -270 -152 -283 -160 -31 -21 -27 -68 6 -72 41
-6 635 109 656 127 35 30 38 59 15 130 -24 76 -64 121 -107 121 -16 -1 -135
-61 -287 -146z"/>
<path d="M10470 6969 c-135 -10 -255 -21 -268 -24 -19 -5 -23 -11 -20 -38 l3
-32 295 -77 c162 -42 313 -77 336 -77 31 -1 46 5 65 25 21 22 24 37 28 111 3
77 1 87 -20 109 -20 22 -30 24 -98 23 -42 -1 -186 -10 -321 -20z"/>
<path d="M4226 6839 c-23 -27 -26 -39 -26 -108 0 -83 17 -122 59 -136 23 -7
651 93 668 107 17 13 17 43 1 56 -13 10 -606 112 -652 112 -15 0 -34 -12 -50
-31z"/>
<path d="M9932 5818 c-34 -34 -16 -53 239 -262 210 -173 256 -206 283 -206 44
0 69 20 106 86 37 66 41 117 13 146 -16 15 -599 248 -622 248 -4 0 -12 -5 -19
-12z"/>
<path d="M4917 5582 c-327 -92 -347 -101 -347 -158 0 -31 46 -133 72 -161 46
-49 69 -39 361 158 216 146 267 184 267 203 0 24 -17 46 -34 45 -6 0 -150 -40
-319 -87z"/>
<path d="M9215 4904 c-9 -9 -13 -24 -10 -35 20 -62 271 -568 291 -586 36 -33
69 -28 141 18 71 46 83 63 83 110 0 36 -6 43 -298 342 -90 92 -170 167 -177
167 -8 0 -21 -7 -30 -16z"/>
<path d="M5743 4602 c-302 -259 -306 -267 -188 -368 47 -40 64 -49 96 -49 26
0 45 7 58 20 31 34 331 542 331 562 0 23 -19 43 -39 43 -9 -1 -125 -94 -258
-208z"/>
<path d="M8192 4388 c-9 -9 -12 -98 -12 -341 l0 -329 31 -30 c29 -29 33 -30
87 -24 97 11 130 24 147 56 8 16 15 36 15 44 0 27 -210 620 -222 628 -18 11
-32 10 -46 -4z"/>
<path d="M7043 4352 c-20 -12 -273 -580 -273 -612 0 -49 32 -77 114 -96 82
-19 119 -14 140 19 14 21 76 543 76 636 0 51 -25 74 -57 53z"/>
</g>
</svg>
