<svg id="Capa_1" enable-background="new 0 0 512 512" height="512" viewBox="0 0 512 512" width="512" xmlns="http://www.w3.org/2000/svg"><g><path d="m290.394 140.393-49.394 49.394-19.394-19.394-21.212 21.214 40.606 40.606 70.606-70.606z"/><path d="m487.322 186.594-66.322-31.899v-138.695h-330v138.695l-66.393 31.934c-14.948 7.287-24.606 22.74-24.607 39.369v270.002h512v-270.002c-.001-16.629-9.659-32.082-24.678-39.404zm-366.322-140.594h270v232.807l-135 65.52-135-65.52zm-83.318 167.63 53.318-25.645v76.262l-53.247-25.842c-4.71-2.296-7.753-7.165-7.753-12.405s3.043-10.109 7.682-12.37zm444.318 252.37h-452v-198.012l132.931 64.516-88.237 77.207 19.755 22.577 97.786-85.563 63.765 30.948 63.765-30.947 97.786 85.563 19.755-22.577-88.237-77.208 132.931-64.516zm-7.729-227.607-53.271 25.854v-76.263l53.247 25.611c4.71 2.296 7.753 7.165 7.753 12.405s-3.043 10.109-7.729 12.393z"/><path d="m361 181c0-57.897-47.103-105-105-105s-105 47.103-105 105 47.103 105 105 105 105-47.103 105-105zm-180 0c0-41.355 33.645-75 75-75s75 33.645 75 75-33.645 75-75 75-75-33.645-75-75z"/></g></svg>